<?xml version="1.0" encoding="UTF-8" standalone="no"?>
<!-- Created with Inkscape (http://www.inkscape.org/) -->

<svg
   xmlns:dc="http://purl.org/dc/elements/1.1/"
   xmlns:cc="http://creativecommons.org/ns#"
   xmlns:rdf="http://www.w3.org/1999/02/22-rdf-syntax-ns#"
   xmlns:svg="http://www.w3.org/2000/svg"
   xmlns="http://www.w3.org/2000/svg"
   xmlns:xlink="http://www.w3.org/1999/xlink"
   xmlns:sodipodi="http://sodipodi.sourceforge.net/DTD/sodipodi-0.dtd"
   xmlns:inkscape="http://www.inkscape.org/namespaces/inkscape"
   width="633.13239"
   height="713.86285"
   viewBox="0 0 167.51628 188.87622"
   version="1.1"
   id="svg1314"
   inkscape:version="0.92.3 (2405546, 2018-03-11)"
   sodipodi:docname="icon.svg"
   inkscape:export-filename="/home/ilham/Documents/icon.png"
   inkscape:export-xdpi="300"
   inkscape:export-ydpi="300">
  <defs
     id="defs1308">
    <linearGradient
       inkscape:collect="always"
       xlink:href="#linearGradient1099"
       id="linearGradient1101"
       x1="890.03516"
       y1="381.68756"
       x2="993.9024"
       y2="773.94739"
       gradientUnits="userSpaceOnUse"
       gradientTransform="matrix(0.12677914,0,0,0.13451924,-21.235989,86.669169)" />
    <linearGradient
       inkscape:collect="always"
       id="linearGradient1099">
      <stop
         style="stop-color:#ff0000;stop-opacity:1"
         offset="0"
         id="stop1095" />
      <stop
         style="stop-color:#ffffbc;stop-opacity:0.231"
         offset="1"
         id="stop1097" />
    </linearGradient>
    <linearGradient
       inkscape:collect="always"
       xlink:href="#linearGradient1159"
       id="linearGradient1161"
       x1="73.014259"
       y1="67.788277"
       x2="73.014259"
       y2="120.92995"
       gradientUnits="userSpaceOnUse"
       gradientTransform="matrix(0.74393484,0,0,0.74393484,70.828451,96.413425)" />
    <linearGradient
       inkscape:collect="always"
       id="linearGradient1159">
      <stop
         style="stop-color:#ff0000;stop-opacity:1"
         offset="0"
         id="stop1155" />
      <stop
         style="stop-color:#ffffc8;stop-opacity:1"
         offset="1"
         id="stop1157" />
    </linearGradient>
    <linearGradient
       inkscape:collect="always"
       xlink:href="#linearGradient1175"
       id="linearGradient1177"
       x1="45.703091"
       y1="6.7452931"
       x2="45.703091"
       y2="26.255968"
       gradientUnits="userSpaceOnUse"
       gradientTransform="matrix(0.73191002,0,0,0.67718081,71.380798,100.63349)" />
    <linearGradient
       inkscape:collect="always"
       id="linearGradient1175">
      <stop
         style="stop-color:#ff6600;stop-opacity:1"
         offset="0"
         id="stop1171" />
      <stop
         style="stop-color:#ffccaa;stop-opacity:1"
         offset="1"
         id="stop1173" />
    </linearGradient>
    <linearGradient
       inkscape:collect="always"
       xlink:href="#linearGradient1121"
       id="linearGradient1123"
       x1="45.982689"
       y1="195.8472"
       x2="38.014465"
       y2="-48.816391"
       gradientUnits="userSpaceOnUse"
       gradientTransform="matrix(0.74393484,0,0,0.74393484,70.828339,97.454214)" />
    <linearGradient
       inkscape:collect="always"
       id="linearGradient1121">
      <stop
         style="stop-color:#00ec00;stop-opacity:1"
         offset="0"
         id="stop1117" />
      <stop
         style="stop-color:#ffff00;stop-opacity:1"
         offset="1"
         id="stop1119" />
    </linearGradient>
    <linearGradient
       inkscape:collect="always"
       xlink:href="#linearGradient1175"
       id="linearGradient2714"
       gradientUnits="userSpaceOnUse"
       gradientTransform="matrix(0.73191002,0,0,0.67718081,71.380798,100.63349)"
       x1="45.703091"
       y1="6.7452931"
       x2="45.703091"
       y2="26.255968" />
  </defs>
  <sodipodi:namedview
     id="base"
     pagecolor="#ffffff"
     bordercolor="#666666"
     borderopacity="1.0"
     inkscape:pageopacity="0"
     inkscape:pageshadow="2"
     inkscape:zoom="0.50239937"
     inkscape:cx="224.86946"
     inkscape:cy="414.19702"
     inkscape:document-units="px"
     inkscape:current-layer="layer1"
     showgrid="false"
     inkscape:window-width="1366"
     inkscape:window-height="725"
     inkscape:window-x="0"
     inkscape:window-y="20"
     inkscape:window-maximized="1"
     units="px" />
  <metadata
     id="metadata1311">
    <rdf:RDF>
      <cc:Work
         rdf:about="">
        <dc:format>image/svg+xml</dc:format>
        <dc:type
           rdf:resource="http://purl.org/dc/dcmitype/StillImage" />
        <dc:title></dc:title>
      </cc:Work>
    </rdf:RDF>
  </metadata>
  <g
     inkscape:label="Layer 1"
     inkscape:groupmode="layer"
     id="layer1"
     transform="translate(-21.241865,-54.061887)">
    <path
       style="opacity:1;vector-effect:none;fill:url(#linearGradient1123);fill-opacity:1;stroke:none;stroke-width:5.66200209;stroke-linecap:round;stroke-linejoin:round;stroke-miterlimit:4;stroke-dasharray:none;stroke-dashoffset:0;stroke-opacity:1"
       d="m 105.06687,54.062585 c -7.059655,0.03072 -17.932743,6.580401 -18.382727,6.839938 L 35.170089,90.315951 C 25.402623,95.031114 21.241865,102.92237 21.241865,112.16901 v 40.60482 32.05798 c 0,10.83684 1.969382,15.13648 13.928224,21.85305 l 51.514053,29.41342 c 0.444115,0.25616 11.038713,6.6348 18.102088,6.83072 0.0822,0.006 0.1644,0.009 0.2468,0.008 0.0111,7e-5 0.0228,10e-4 0.0339,10e-4 6.89785,0.03 17.6395,-6.20555 18.05018,-6.44242 -0.98416,0.56238 52.09725,-29.81093 52.09725,-29.81093 10.57688,-6.28644 13.54378,-9.6591 13.54378,-21.13149 v -32.77992 -41.32642 c 0,-13.145847 -5.16235,-16.309809 -13.54378,-21.131459 0,0 -53.08141,-30.37332 -52.09725,-29.810935 -0.41068,-0.236861 -11.15232,-6.472426 -18.05018,-6.442431 z"
       id="path1103"
       inkscape:connector-curvature="0"
       sodipodi:nodetypes="sccscccccccccccsccs" />
    <g
       id="g2712"
       transform="translate(2.7421654e-5,0.95151752)">
      <path
         inkscape:connector-curvature="0"
         id="rect1065"
         d="m 89.651064,104.31698 c -9.181116,0 -16.585433,7.80283 -16.703321,17.54196 h 9.482795 c 0.302916,-3.00776 2.682085,-5.33536 5.591588,-5.33536 h 33.955244 c 2.90951,0 5.28887,2.3276 5.59183,5.33536 h 9.48255 c -0.11789,-9.73914 -7.52221,-17.54196 -16.70332,-17.54196 z"
         style="opacity:1;vector-effect:none;fill:url(#linearGradient2714);fill-opacity:1;stroke:none;stroke-width:0.44863412;stroke-linecap:round;stroke-linejoin:round;stroke-miterlimit:4;stroke-dasharray:none;stroke-dashoffset:0;stroke-opacity:1" />
      <path
         sodipodi:nodetypes="cssssssccsssscc"
         inkscape:connector-curvature="0"
         id="path1075"
         d="m 72.947743,121.85894 c -7.31e-4,0.0786 -0.0022,0.1568 -0.0022,0.23557 v 29.50647 c 0,9.84877 4.554355,12.77446 13.809504,12.77446 h 37.280363 c 9.25513,0 13.01954,-2.92569 13.01954,-12.77446 v -29.50647 c 0,-0.0787 -9.1e-4,-0.15703 -0.002,-0.23557 h -9.48257 c 0.0216,0.21369 0.0332,0.43056 0.0332,0.65052 0,3.31608 -2.50888,5.98563 -5.62508,5.98563 H 88.022819 c -3.116207,0 -5.62485,-2.66955 -5.62485,-5.98563 0,-0.21996 0.01179,-0.43683 0.03331,-0.65052 z"
         style="opacity:1;vector-effect:none;fill:#c87137;fill-opacity:1;stroke:none;stroke-width:0.44863412;stroke-linecap:round;stroke-linejoin:round;stroke-miterlimit:4;stroke-dasharray:none;stroke-dashoffset:0;stroke-opacity:1" />
      <path
         inkscape:connector-curvature="0"
         id="path1081"
         d="m 104.7701,130.4804 v 60.29958 h 32.79543 a 37.772008,40.078058 0 0 0 5.20637,-20.2223 l -7.5e-4,-0.32527 A 37.772008,40.078058 0 0 0 104.77033,130.4804 Z"
         style="opacity:0.8;vector-effect:none;fill:url(#linearGradient1161);fill-opacity:1;stroke:none;stroke-width:1.04730749;stroke-linecap:round;stroke-linejoin:round;stroke-miterlimit:4;stroke-dasharray:none;stroke-dashoffset:0;stroke-opacity:1" />
      <path
         inkscape:connector-curvature="0"
         id="rect1086"
         d="m 104.7701,130.4804 a 37.772008,40.078058 0 0 0 -37.541739,40.23991 37.772008,40.078058 0 0 0 5.214043,20.05967 H 104.7701 Z"
         style="opacity:0.8;vector-effect:none;fill:url(#linearGradient1101);fill-opacity:1;stroke:none;stroke-width:0.49357551;stroke-linecap:round;stroke-linejoin:round;stroke-miterlimit:4;stroke-dasharray:none;stroke-dashoffset:0;stroke-opacity:1" />
    </g>
  </g>
</svg>
